<svg height="512" viewBox="0 0 64 64" width="512" xmlns="http://www.w3.org/2000/svg"><g id="printer-wifi-computer-mouse-keyboard"><path d="m3 27v4a4 4 0 0 0 4 4h40v-8z" fill="#e0e0e2"/><path d="m43 3h-36a4 4 0 0 0 -4 4v20h44v-20a4 4 0 0 0 -4-4z" fill="#46f8ff"/><path d="m57 49a3.995 3.995 0 0 1 4 4v4a4 4 0 0 1 -8 0v-4a4 4 0 0 1 4-4z" fill="#ff7956"/><rect fill="#898890" height="12" rx="4" width="40" x="5" y="49"/><path d="m32 43v2h-14v-2a2.006 2.006 0 0 1 2-2h10a2.006 2.006 0 0 1 2 2z" fill="#e0e0e2"/><path d="m22 35h6v6h-6z" fill="#898890"/><path d="m61 53v4a3.994 3.994 0 0 1 -6 3.46 3.98 3.98 0 0 0 2-3.46v-4a4.025 4.025 0 0 0 -1.17-2.83 4.225 4.225 0 0 0 -.83-.63 3.995 3.995 0 0 1 6 3.46z" fill="#ff5023"/><path d="m45 53v4a4 4 0 0 1 -4 4h-4a4 4 0 0 0 4-4v-4a4 4 0 0 0 -4-4h4a4 4 0 0 1 4 4z" fill="#57565c"/><path d="m32 43v2h-4v-2a2.006 2.006 0 0 0 -2-2h4a2.006 2.006 0 0 1 2 2z" fill="#898890"/><path d="m25 35h3v6h-3z" fill="#57565c"/><path d="m36 17h22v12h-22z" fill="#898890"/><path d="m40 25h14v10h-14z" fill="#fee9ab"/><path d="m40 7h14v10h-14z" fill="#fee9ab"/><path d="m54 17h4v12h-4z" fill="#787680"/><path d="m50 7h4v10h-4z" fill="#ffde55"/><path d="m50 25h4v10h-4z" fill="#ffde55"/><path d="m25 10a8.931 8.931 0 0 0 -6.357 2.643l1.414 1.414a6.968 6.968 0 0 1 9.886 0l1.414-1.414a8.931 8.931 0 0 0 -6.357-2.643z"/><path d="m21.468 15.458 1.4 1.424a3.082 3.082 0 0 1 4.256 0l1.4-1.424a5.007 5.007 0 0 0 -7.064 0z"/><path d="m25 8a10.891 10.891 0 0 1 7.771 3.226l1.418-1.412a12.976 12.976 0 0 0 -18.378 0l1.418 1.412a10.891 10.891 0 0 1 7.771-3.226z"/><circle cx="25" cy="20" r="2"/><path d="m31 19h2v2h-2z"/><path d="m39 20h2v2h-2z"/><path d="m43 20h2v2h-2z"/><path d="m47 20h2v2h-2z"/><path d="m41 48h-32a5 5 0 0 0 -5 5v4a5 5 0 0 0 5 5h32a5 5 0 0 0 5-5v-4a5 5 0 0 0 -5-5zm3 9a3.009 3.009 0 0 1 -3 3h-32a3.009 3.009 0 0 1 -3-3v-4a3.009 3.009 0 0 1 3-3h32a3.009 3.009 0 0 1 3 3z"/><path d="m58 48.1v-2.1a3.009 3.009 0 0 0 -3-3h-6a1 1 0 0 1 -1-1v-6h6a1 1 0 0 0 1-1v-5h3a1 1 0 0 0 1-1v-12a1 1 0 0 0 -1-1h-3v-9a1 1 0 0 0 -1-1h-6.1a5.017 5.017 0 0 0 -4.9-4h-36a5 5 0 0 0 -5 5v24a5 5 0 0 0 5 5h14v4h-1a3.009 3.009 0 0 0 -3 3v2a1 1 0 0 0 1 1h14a1 1 0 0 0 1-1v-2a3.009 3.009 0 0 0 -3-3h-1v-4h17v6a3.009 3.009 0 0 0 3 3h6a1 1 0 0 1 1 1v2.1a5.017 5.017 0 0 0 -4 4.9v4a5 5 0 0 0 10 0v-4a5.017 5.017 0 0 0 -4-4.9zm-5-40.1v8h-12v-8zm-49-1a3.009 3.009 0 0 1 3-3h36a3.01 3.01 0 0 1 2.82 2h-5.82a1 1 0 0 0 -1 1v9h-3a1 1 0 0 0 -1 1v9h-31zm26 35a1 1 0 0 1 1 1v1h-12v-1a1 1 0 0 1 1-1zm-7-2v-4h4v4zm16-6h-32a3.009 3.009 0 0 1 -3-3v-3h31v1a1 1 0 0 0 1 1h3zm0-9v3h-2v-10h20v10h-2v-3a1 1 0 0 0 -1-1h-14a1 1 0 0 0 -1 1zm2 9v-8h12v8zm19 23a3 3 0 0 1 -6 0v-4a3.01 3.01 0 0 1 2-2.82v2.82h2v-2.82a3.01 3.01 0 0 1 2 2.82z"/><path d="m20 56h10v2h-10z"/><path d="m12 52h2v2h-2z"/><path d="m8 52h2v2h-2z"/><path d="m16 52h2v2h-2z"/><path d="m12 56h2v2h-2z"/><path d="m8 56h2v2h-2z"/><path d="m16 56h2v2h-2z"/><path d="m36 56h2v2h-2z"/><path d="m32 56h2v2h-2z"/><path d="m40 56h2v2h-2z"/><path d="m20 52h2v2h-2z"/><path d="m24 52h2v2h-2z"/><path d="m28 52h2v2h-2z"/><path d="m32 52h2v2h-2z"/><path d="m36 52h2v2h-2z"/><path d="m40 52h2v2h-2z"/></g></svg>