<svg xmlns="http://www.w3.org/2000/svg" width="64" height="64" enable-background="new 0 0 64 64" viewBox="0 0 64 64"><path fill="#323A7C" d="M60.12,46.2H42.65l-3.721-6.13H56.4c2.68,0,4.85-2.18,4.85-4.85V5.811c0-2.681-2.17-4.851-4.85-4.851H7.6
		c-2.68,0-4.85,2.17-4.85,4.851v29.41c0,2.67,2.17,4.85,4.85,4.85H25.07L21.35,46.2H3.88C1.74,46.2,0,47.94,0,50.08v9.08
		c0,2.141,1.74,3.88,3.88,3.88h56.24c2.14,0,3.88-1.739,3.88-3.88v-9.08C64,47.94,62.26,46.2,60.12,46.2z M7.6,38.13
		c-1.609,0-2.91-1.3-2.91-2.909V5.811C4.689,4.2,5.99,2.9,7.6,2.9H56.4c1.609,0,2.909,1.3,2.909,2.91v29.41
		c0,1.609-1.3,2.909-2.909,2.909H7.6z M27.34,40.07h9.32l3.729,6.13h-16.78L27.34,40.07z M62.06,59.16c0,1.07-0.87,1.94-1.939,1.94
		H3.88c-1.07,0-1.94-0.87-1.94-1.94v-9.08c0-1.07,0.87-1.939,1.94-1.939h18.01c0,0,0,0,0.011,0H42.1c0.01,0,0.01,0,0.01,0H60.12
		c1.069,0,1.939,0.869,1.939,1.939V59.16z"/><path fill="#4FBEE6" d="M60.12,48.141H42.109c0,0,0,0-0.01,0H21.9c-0.011,0-0.011,0-0.011,0H3.88c-1.07,0-1.94,0.869-1.94,1.939
		v9.08c0,1.07,0.87,1.94,1.94,1.94h56.24c1.069,0,1.939-0.87,1.939-1.94v-9.08C62.06,49.01,61.189,48.141,60.12,48.141z
		 M30.87,57.07c0,0.53-0.431,0.97-0.97,0.97H6.63c-0.54,0-0.97-0.439-0.97-0.97V52.18c0-0.539,0.43-0.97,0.97-0.97H29.9
		c0.539,0,0.97,0.431,0.97,0.97V57.07z M43.09,58.771c-2.28,0-4.14-1.86-4.14-4.15c0-2.28,1.859-4.14,4.14-4.14
		c2.29,0,4.15,1.859,4.15,4.14C47.24,56.91,45.38,58.771,43.09,58.771z M54.2,58.771c-2.29,0-4.15-1.86-4.15-4.15
		c0-2.28,1.86-4.14,4.15-4.14c2.279,0,4.14,1.859,4.14,4.14C58.34,56.91,56.479,58.771,54.2,58.771z"/><path fill="#FEDC7D" d="M56.4,2.9H7.6c-1.609,0-2.91,1.3-2.91,2.91v29.41c0,1.609,1.301,2.909,2.91,2.909H56.4
		c1.609,0,2.909-1.3,2.909-2.909V5.811C59.31,4.2,58.01,2.9,56.4,2.9z M57.02,34.83c0,0.54-0.439,0.971-0.97,0.971H7.95
		c-0.53,0-0.971-0.431-0.971-0.971V6.19c0-0.53,0.44-0.96,0.971-0.96h48.1c0.53,0,0.97,0.43,0.97,0.96V34.83z"/><path fill="#323A7C" d="M29.9,51.21H6.63c-0.54,0-0.97,0.431-0.97,0.97v4.891c0,0.53,0.43,0.97,0.97,0.97H29.9
		c0.539,0,0.97-0.439,0.97-0.97V52.18C30.87,51.641,30.439,51.21,29.9,51.21z M28.93,56.101H7.6v-2.95h21.33V56.101z"/><rect width="21.33" height="2.95" x="7.6" y="53.15" fill="#EAEAEA"/><path fill="#323A7C" d="M43.09,50.48c-2.28,0-4.14,1.859-4.14,4.14c0,2.29,1.859,4.15,4.14,4.15c2.29,0,4.15-1.86,4.15-4.15
		C47.24,52.34,45.38,50.48,43.09,50.48z M43.09,56.83c-1.21,0-2.2-0.99-2.2-2.21c0-1.21,0.99-2.2,2.2-2.2c1.22,0,2.21,0.99,2.21,2.2
		C45.3,55.84,44.31,56.83,43.09,56.83z"/><path fill="#FEDC7D" d="M45.3,54.62c0,1.22-0.99,2.21-2.21,2.21c-1.21,0-2.2-0.99-2.2-2.21c0-1.21,0.99-2.2,2.2-2.2
		C44.31,52.42,45.3,53.41,45.3,54.62z"/><path fill="#323A7C" d="M54.2,50.48c-2.29,0-4.15,1.859-4.15,4.14c0,2.29,1.86,4.15,4.15,4.15c2.279,0,4.14-1.86,4.14-4.15
		C58.34,52.34,56.479,50.48,54.2,50.48z M54.2,56.83c-1.221,0-2.21-0.99-2.21-2.21c0-1.21,0.989-2.2,2.21-2.2
		c1.21,0,2.2,0.99,2.2,2.2C56.4,55.84,55.41,56.83,54.2,56.83z"/><path fill="#F59393" d="M56.4,54.62c0,1.22-0.99,2.21-2.2,2.21c-1.221,0-2.21-0.99-2.21-2.21c0-1.21,0.989-2.2,2.21-2.2
		C55.41,52.42,56.4,53.41,56.4,54.62z"/><path fill="#323A7C" d="M56.05,5.23H7.95c-0.53,0-0.971,0.43-0.971,0.96v28.64c0,0.54,0.44,0.971,0.971,0.971h48.1
		c0.53,0,0.97-0.431,0.97-0.971V6.19C57.02,5.66,56.58,5.23,56.05,5.23z M55.08,33.86H8.92V7.16h46.16V33.86z"/><rect width="46.16" height="26.7" x="8.92" y="7.16" fill="#EAEAEA"/></svg>